<mxfile host="Electron" modified="2023-12-12T14:37:31.093Z" agent="Mozilla/5.0 (Windows NT 10.0; Win64; x64) AppleWebKit/537.36 (KHTML, like Gecko) draw.io/22.1.2 Chrome/114.0.5735.289 Electron/25.9.4 Safari/537.36" etag="g0FyWO6PCXn8Dn6CqGKI" version="22.1.2" type="device">
  <diagram name="Page-1" id="XsJ8zEwARgYIFfF5kcwq">
    <mxGraphModel dx="3056" dy="2386" grid="1" gridSize="10" guides="1" tooltips="1" connect="1" arrows="1" fold="1" page="1" pageScale="1" pageWidth="850" pageHeight="1100" math="0" shadow="0">
      <root>
        <mxCell id="0" />
        <mxCell id="1" parent="0" />
        <mxCell id="T_Qcv4OTEnrP9w2gQTgH-1" value="&lt;p style=&quot;margin:0px;margin-top:4px;text-align:center;&quot;&gt;&lt;b style=&quot;&quot;&gt;&lt;font style=&quot;font-size: 18px;&quot;&gt;User&lt;/font&gt;&lt;/b&gt;&lt;/p&gt;&lt;hr size=&quot;1&quot;&gt;&lt;p style=&quot;margin:0px;margin-left:4px;&quot;&gt;&lt;font size=&quot;3&quot;&gt;&amp;nbsp;&lt;u&gt;&lt;b&gt;ID: int&lt;/b&gt;&lt;/u&gt;&lt;/font&gt;&lt;/p&gt;&lt;p style=&quot;margin:0px;margin-left:4px;&quot;&gt;&lt;font size=&quot;3&quot;&gt;&amp;nbsp;&lt;/font&gt;&lt;span style=&quot;font-size: medium; background-color: initial;&quot;&gt;Email: String&lt;/span&gt;&lt;/p&gt;&lt;p style=&quot;margin:0px;margin-left:4px;&quot;&gt;&lt;font size=&quot;3&quot;&gt;&amp;nbsp;Password:String&lt;/font&gt;&lt;/p&gt;&lt;hr size=&quot;1&quot;&gt;&lt;p style=&quot;margin:0px;margin-left:4px;&quot;&gt;&lt;font size=&quot;3&quot;&gt;&amp;nbsp;Login(): Bool&lt;/font&gt;&lt;/p&gt;&lt;p style=&quot;margin:0px;margin-left:4px;&quot;&gt;&lt;font size=&quot;3&quot;&gt;&amp;nbsp;Logout(): Bool&lt;/font&gt;&lt;/p&gt;&lt;p style=&quot;margin:0px;margin-left:4px;&quot;&gt;&lt;font size=&quot;3&quot;&gt;&amp;nbsp;Input_info()&lt;/font&gt;&lt;/p&gt;&lt;p style=&quot;margin:0px;margin-left:4px;&quot;&gt;&lt;font size=&quot;3&quot;&gt;&amp;nbsp;Show_product()&lt;/font&gt;&lt;/p&gt;&lt;p style=&quot;margin:0px;margin-left:4px;&quot;&gt;&lt;font size=&quot;3&quot;&gt;&amp;nbsp;Search_product(): Bool&lt;/font&gt;&lt;/p&gt;&lt;p style=&quot;margin:0px;margin-left:4px;&quot;&gt;&lt;font size=&quot;3&quot;&gt;&amp;nbsp;Show_cate()&lt;/font&gt;&lt;/p&gt;&lt;p style=&quot;margin:0px;margin-left:4px;&quot;&gt;&lt;font size=&quot;3&quot;&gt;&amp;nbsp;Search_cate(): Bool&lt;/font&gt;&lt;/p&gt;" style="verticalAlign=top;align=left;overflow=fill;fontSize=12;fontFamily=Helvetica;html=1;whiteSpace=wrap;" vertex="1" parent="1">
          <mxGeometry x="517.5" y="-205.5" width="235" height="261" as="geometry" />
        </mxCell>
        <mxCell id="T_Qcv4OTEnrP9w2gQTgH-2" value="&lt;p style=&quot;margin:0px;margin-top:4px;text-align:center;&quot;&gt;&lt;b style=&quot;&quot;&gt;&lt;font style=&quot;font-size: 18px;&quot;&gt;Admin&amp;nbsp;&lt;/font&gt;&lt;/b&gt;&lt;/p&gt;&lt;hr size=&quot;1&quot;&gt;&lt;p style=&quot;margin:0px;margin-left:4px;&quot;&gt;&lt;font size=&quot;3&quot; style=&quot;&quot;&gt;&amp;nbsp;&lt;b&gt;&lt;u&gt;AD_ID: int&lt;/u&gt;&lt;/b&gt;&lt;/font&gt;&lt;/p&gt;&lt;p style=&quot;margin:0px;margin-left:4px;&quot;&gt;&lt;font size=&quot;3&quot;&gt;&amp;nbsp;AD_name: String&lt;/font&gt;&lt;/p&gt;&lt;hr size=&quot;1&quot;&gt;&lt;p style=&quot;margin:0px;margin-left:4px;&quot;&gt;&lt;font size=&quot;3&quot;&gt;&amp;nbsp;AddCate()&lt;/font&gt;&lt;/p&gt;&lt;p style=&quot;margin:0px;margin-left:4px;&quot;&gt;&lt;font size=&quot;3&quot;&gt;&amp;nbsp;DeleteCate()&lt;/font&gt;&lt;/p&gt;&lt;p style=&quot;margin:0px;margin-left:4px;&quot;&gt;&lt;font size=&quot;3&quot;&gt;&amp;nbsp;UpdateCate()&lt;/font&gt;&lt;/p&gt;&lt;p style=&quot;margin:0px;margin-left:4px;&quot;&gt;&lt;font size=&quot;3&quot;&gt;&amp;nbsp;AddProduct()&lt;/font&gt;&lt;/p&gt;&lt;p style=&quot;margin:0px;margin-left:4px;&quot;&gt;&lt;font size=&quot;3&quot;&gt;&amp;nbsp;UpdateProduct()&lt;/font&gt;&lt;/p&gt;&lt;p style=&quot;margin:0px;margin-left:4px;&quot;&gt;&lt;font size=&quot;3&quot;&gt;&amp;nbsp;DeleteProduct()&lt;/font&gt;&lt;/p&gt;&lt;p style=&quot;margin:0px;margin-left:4px;&quot;&gt;&lt;font size=&quot;3&quot;&gt;&amp;nbsp;AddStaff()&lt;/font&gt;&lt;/p&gt;&lt;p style=&quot;margin:0px;margin-left:4px;&quot;&gt;&lt;font size=&quot;3&quot;&gt;&amp;nbsp;DeleteStaff()&lt;/font&gt;&lt;/p&gt;&lt;p style=&quot;margin:0px;margin-left:4px;&quot;&gt;&lt;font size=&quot;3&quot;&gt;&amp;nbsp;UpdateStaff()&lt;/font&gt;&lt;/p&gt;&lt;p style=&quot;margin:0px;margin-left:4px;&quot;&gt;&lt;font size=&quot;3&quot;&gt;&amp;nbsp;CheckOrder()&lt;/font&gt;&lt;/p&gt;&lt;p style=&quot;margin:0px;margin-left:4px;&quot;&gt;&lt;font size=&quot;3&quot;&gt;&amp;nbsp;DeleteOrder()&lt;/font&gt;&lt;/p&gt;&lt;p style=&quot;margin:0px;margin-left:4px;&quot;&gt;&lt;font size=&quot;3&quot;&gt;&amp;nbsp;DeleteCmt()&lt;/font&gt;&lt;/p&gt;" style="verticalAlign=top;align=left;overflow=fill;fontSize=12;fontFamily=Helvetica;html=1;whiteSpace=wrap;" vertex="1" parent="1">
          <mxGeometry x="530" y="200" width="210" height="340" as="geometry" />
        </mxCell>
        <mxCell id="T_Qcv4OTEnrP9w2gQTgH-3" value="&lt;p style=&quot;margin:0px;margin-top:4px;text-align:center;&quot;&gt;&lt;b style=&quot;&quot;&gt;&lt;font style=&quot;font-size: 18px;&quot;&gt;Custormer&lt;/font&gt;&lt;/b&gt;&lt;/p&gt;&lt;hr size=&quot;1&quot;&gt;&lt;p style=&quot;margin:0px;margin-left:4px;&quot;&gt;&lt;font size=&quot;3&quot;&gt;&lt;font style=&quot;&quot;&gt;&amp;nbsp;&lt;/font&gt;&lt;font style=&quot;&quot;&gt;&lt;b&gt;&lt;u&gt;Cus_ID: int&lt;/u&gt;&lt;/b&gt;&lt;/font&gt;&lt;/font&gt;&lt;/p&gt;&lt;p style=&quot;margin:0px;margin-left:4px;&quot;&gt;&lt;font size=&quot;3&quot;&gt;&lt;font style=&quot;&quot;&gt;&amp;nbsp;Cus_name: String&lt;/font&gt;&lt;/font&gt;&lt;/p&gt;&lt;hr size=&quot;1&quot;&gt;&lt;p style=&quot;margin:0px;margin-left:4px;&quot;&gt;&lt;font size=&quot;3&quot;&gt;&amp;nbsp;Addtocart()&lt;/font&gt;&lt;/p&gt;&lt;p style=&quot;margin:0px;margin-left:4px;&quot;&gt;&lt;font size=&quot;3&quot;&gt;&amp;nbsp;Follow_cart()&lt;/font&gt;&lt;/p&gt;&lt;p style=&quot;margin:0px;margin-left:4px;&quot;&gt;&lt;font size=&quot;3&quot;&gt;&amp;nbsp;&lt;span style=&quot;background-color: initial;&quot;&gt;Update_cart()&lt;/span&gt;&lt;/font&gt;&lt;/p&gt;&lt;p style=&quot;margin:0px;margin-left:4px;&quot;&gt;&lt;span style=&quot;background-color: initial;&quot;&gt;&lt;font size=&quot;3&quot;&gt;&amp;nbsp;Delete_cart()&lt;/font&gt;&lt;/span&gt;&lt;/p&gt;&lt;p style=&quot;margin:0px;margin-left:4px;&quot;&gt;&lt;font size=&quot;3&quot;&gt;&amp;nbsp;Order_cart()&lt;/font&gt;&lt;/p&gt;&lt;p style=&quot;margin:0px;margin-left:4px;&quot;&gt;&lt;font size=&quot;3&quot;&gt;&amp;nbsp;Follow_order()&lt;/font&gt;&lt;/p&gt;&lt;p style=&quot;margin:0px;margin-left:4px;&quot;&gt;&lt;font size=&quot;3&quot;&gt;&amp;nbsp;Update_order()&lt;/font&gt;&lt;/p&gt;&lt;p style=&quot;margin:0px;margin-left:4px;&quot;&gt;&lt;font size=&quot;3&quot;&gt;&amp;nbsp;Delete_order()&lt;/font&gt;&lt;/p&gt;&lt;p style=&quot;margin:0px;margin-left:4px;&quot;&gt;&lt;font size=&quot;3&quot;&gt;&amp;nbsp;Show_cmt()&lt;/font&gt;&lt;/p&gt;&lt;p style=&quot;margin:0px;margin-left:4px;&quot;&gt;&lt;font size=&quot;3&quot;&gt;&amp;nbsp;Send_cmnt()&lt;/font&gt;&lt;/p&gt;" style="verticalAlign=top;align=left;overflow=fill;fontSize=12;fontFamily=Helvetica;html=1;whiteSpace=wrap;" vertex="1" parent="1">
          <mxGeometry x="110" y="220" width="240" height="290" as="geometry" />
        </mxCell>
        <mxCell id="T_Qcv4OTEnrP9w2gQTgH-4" value="&lt;p style=&quot;margin:0px;margin-top:4px;text-align:center;&quot;&gt;&lt;b style=&quot;&quot;&gt;&lt;font style=&quot;font-size: 18px;&quot;&gt;Cart&amp;nbsp;&lt;/font&gt;&lt;/b&gt;&lt;/p&gt;&lt;hr size=&quot;1&quot;&gt;&lt;p style=&quot;margin:0px;margin-left:4px;&quot;&gt;&lt;font size=&quot;3&quot; style=&quot;&quot;&gt;&lt;u&gt;&amp;nbsp;&lt;b&gt;Cart_ID: int&lt;/b&gt;&lt;/u&gt;&lt;/font&gt;&lt;/p&gt;&lt;p style=&quot;margin:0px;margin-left:4px;&quot;&gt;&lt;font size=&quot;3&quot;&gt;&amp;nbsp;Total_price: int&lt;/font&gt;&lt;/p&gt;&lt;hr size=&quot;1&quot;&gt;&lt;p style=&quot;margin:0px;margin-left:4px;&quot;&gt;&lt;font size=&quot;3&quot;&gt;&amp;nbsp;ShowCart()&lt;/font&gt;&lt;br&gt;&lt;/p&gt;&lt;p style=&quot;margin:0px;margin-left:4px;&quot;&gt;&lt;font size=&quot;3&quot;&gt;&amp;nbsp;&lt;/font&gt;&lt;/p&gt;" style="verticalAlign=top;align=left;overflow=fill;fontSize=12;fontFamily=Helvetica;html=1;whiteSpace=wrap;" vertex="1" parent="1">
          <mxGeometry x="140" y="710" width="210" height="120" as="geometry" />
        </mxCell>
        <mxCell id="T_Qcv4OTEnrP9w2gQTgH-5" value="&lt;p style=&quot;margin:0px;margin-top:4px;text-align:center;&quot;&gt;&lt;span style=&quot;font-size: 18px;&quot;&gt;&lt;b&gt;Order&lt;/b&gt;&lt;/span&gt;&lt;/p&gt;&lt;hr size=&quot;1&quot;&gt;&lt;p style=&quot;margin:0px;margin-left:4px;&quot;&gt;&lt;font size=&quot;3&quot;&gt;&amp;nbsp;&lt;b&gt;&lt;u&gt;Order_ID: int&lt;/u&gt;&lt;/b&gt;&lt;/font&gt;&lt;/p&gt;&lt;p style=&quot;margin:0px;margin-left:4px;&quot;&gt;&lt;font size=&quot;3&quot;&gt;&amp;nbsp;Order_code: int&lt;/font&gt;&lt;/p&gt;&lt;p style=&quot;margin:0px;margin-left:4px;&quot;&gt;&lt;font size=&quot;3&quot;&gt;&amp;nbsp;Order_name: String&lt;/font&gt;&lt;/p&gt;&lt;p style=&quot;margin:0px;margin-left:4px;&quot;&gt;&lt;font size=&quot;3&quot;&gt;&amp;nbsp;Order_phone: String&lt;/font&gt;&lt;/p&gt;&lt;p style=&quot;margin:0px;margin-left:4px;&quot;&gt;&lt;font size=&quot;3&quot;&gt;&amp;nbsp;Order_address: String&lt;/font&gt;&lt;/p&gt;&lt;hr size=&quot;1&quot;&gt;&lt;p style=&quot;margin:0px;margin-left:4px;&quot;&gt;&lt;font size=&quot;3&quot;&gt;&amp;nbsp;ShowOrder()&lt;/font&gt;&lt;/p&gt;" style="verticalAlign=top;align=left;overflow=fill;fontSize=12;fontFamily=Helvetica;html=1;whiteSpace=wrap;" vertex="1" parent="1">
          <mxGeometry x="-240" y="680" width="210" height="180" as="geometry" />
        </mxCell>
        <mxCell id="T_Qcv4OTEnrP9w2gQTgH-6" value="&lt;p style=&quot;margin:0px;margin-top:4px;text-align:center;&quot;&gt;&lt;b style=&quot;&quot;&gt;&lt;font style=&quot;font-size: 18px;&quot;&gt;Staff&amp;nbsp;&lt;/font&gt;&lt;/b&gt;&lt;/p&gt;&lt;hr size=&quot;1&quot;&gt;&lt;p style=&quot;margin:0px;margin-left:4px;&quot;&gt;&lt;font size=&quot;3&quot;&gt;&amp;nbsp;&lt;b&gt;&lt;u&gt;Staff_ID: int&lt;/u&gt;&lt;/b&gt;&lt;/font&gt;&lt;/p&gt;&lt;p style=&quot;margin:0px;margin-left:4px;&quot;&gt;&lt;font size=&quot;3&quot;&gt;&amp;nbsp;Staff_name&lt;/font&gt;&lt;/p&gt;&lt;hr size=&quot;1&quot;&gt;&lt;p style=&quot;border-color: var(--border-color); margin: 0px 0px 0px 4px;&quot;&gt;&lt;font style=&quot;border-color: var(--border-color);&quot; size=&quot;3&quot;&gt;&amp;nbsp;CheckOrder()&lt;/font&gt;&lt;/p&gt;&lt;p style=&quot;border-color: var(--border-color); margin: 0px 0px 0px 4px;&quot;&gt;&lt;font style=&quot;border-color: var(--border-color);&quot; size=&quot;3&quot;&gt;&amp;nbsp;DeleteOrder()&lt;/font&gt;&lt;/p&gt;&lt;p style=&quot;border-color: var(--border-color); margin: 0px 0px 0px 4px;&quot;&gt;&lt;font style=&quot;border-color: var(--border-color);&quot; size=&quot;3&quot;&gt;&amp;nbsp;DeleteCmt()&lt;/font&gt;&lt;/p&gt;" style="verticalAlign=top;align=left;overflow=fill;fontSize=12;fontFamily=Helvetica;html=1;whiteSpace=wrap;" vertex="1" parent="1">
          <mxGeometry x="990" y="285" width="210" height="160" as="geometry" />
        </mxCell>
        <mxCell id="T_Qcv4OTEnrP9w2gQTgH-7" value="&lt;p style=&quot;margin:0px;margin-top:4px;text-align:center;&quot;&gt;&lt;b style=&quot;&quot;&gt;&lt;font style=&quot;font-size: 18px;&quot;&gt;Product&lt;/font&gt;&lt;/b&gt;&lt;/p&gt;&lt;hr size=&quot;1&quot;&gt;&lt;p style=&quot;margin:0px;margin-left:4px;&quot;&gt;&lt;font size=&quot;3&quot;&gt;&amp;nbsp;&lt;b&gt;&lt;u&gt;Product_ID: int&lt;/u&gt;&lt;/b&gt;&lt;/font&gt;&lt;/p&gt;&lt;p style=&quot;margin:0px;margin-left:4px;&quot;&gt;&lt;font size=&quot;3&quot;&gt;&amp;nbsp;Product_name: String&lt;/font&gt;&lt;/p&gt;&lt;p style=&quot;margin:0px;margin-left:4px;&quot;&gt;&lt;font size=&quot;3&quot;&gt;&amp;nbsp;Product_slug: String&lt;/font&gt;&lt;/p&gt;&lt;p style=&quot;margin:0px;margin-left:4px;&quot;&gt;&lt;font size=&quot;3&quot;&gt;&amp;nbsp;Product_count: String&lt;/font&gt;&lt;/p&gt;&lt;p style=&quot;margin:0px;margin-left:4px;&quot;&gt;&lt;font size=&quot;3&quot;&gt;&amp;nbsp;Product_desc: String&lt;/font&gt;&lt;/p&gt;&lt;p style=&quot;margin:0px;margin-left:4px;&quot;&gt;&lt;font size=&quot;3&quot;&gt;&amp;nbsp;Product_img: String&amp;nbsp;&lt;/font&gt;&lt;/p&gt;&lt;p style=&quot;margin:0px;margin-left:4px;&quot;&gt;&lt;font size=&quot;3&quot;&gt;&amp;nbsp;Product_type: int&lt;/font&gt;&lt;/p&gt;&lt;hr size=&quot;1&quot;&gt;&lt;p style=&quot;border-color: var(--border-color); margin: 0px 0px 0px 4px;&quot;&gt;&lt;font size=&quot;3&quot;&gt;&amp;nbsp;GetData()&lt;/font&gt;&lt;br&gt;&lt;/p&gt;" style="verticalAlign=top;align=left;overflow=fill;fontSize=12;fontFamily=Helvetica;html=1;whiteSpace=wrap;" vertex="1" parent="1">
          <mxGeometry x="-10" y="-110" width="210" height="220" as="geometry" />
        </mxCell>
        <mxCell id="T_Qcv4OTEnrP9w2gQTgH-9" value="&lt;p style=&quot;margin:0px;margin-top:4px;text-align:center;&quot;&gt;&lt;b style=&quot;&quot;&gt;&lt;font style=&quot;font-size: 18px;&quot;&gt;Category&lt;/font&gt;&lt;/b&gt;&lt;/p&gt;&lt;hr size=&quot;1&quot;&gt;&lt;p style=&quot;margin:0px;margin-left:4px;&quot;&gt;&lt;font size=&quot;3&quot;&gt;&amp;nbsp;Cate_ID: int&lt;/font&gt;&lt;/p&gt;&lt;p style=&quot;margin:0px;margin-left:4px;&quot;&gt;&lt;font size=&quot;3&quot;&gt;&amp;nbsp;Cate_name: String&lt;/font&gt;&lt;/p&gt;&lt;p style=&quot;margin:0px;margin-left:4px;&quot;&gt;&lt;font size=&quot;3&quot;&gt;&amp;nbsp;Cate_slug: String&lt;/font&gt;&lt;/p&gt;&lt;hr size=&quot;1&quot;&gt;&lt;font size=&quot;3&quot;&gt;&amp;nbsp;GetData()&lt;/font&gt;&lt;p style=&quot;border-color: var(--border-color); margin: 0px 0px 0px 4px;&quot;&gt;&lt;font size=&quot;3&quot;&gt;&amp;nbsp;&lt;/font&gt;&lt;/p&gt;&lt;p style=&quot;border-color: var(--border-color); margin: 0px 0px 0px 4px;&quot;&gt;&amp;nbsp;&lt;/p&gt;" style="verticalAlign=top;align=left;overflow=fill;fontSize=12;fontFamily=Helvetica;html=1;whiteSpace=wrap;" vertex="1" parent="1">
          <mxGeometry x="1110" y="-50" width="210" height="140" as="geometry" />
        </mxCell>
        <mxCell id="T_Qcv4OTEnrP9w2gQTgH-10" value="&lt;p style=&quot;margin:0px;margin-top:4px;text-align:center;&quot;&gt;&lt;b style=&quot;&quot;&gt;&lt;font style=&quot;font-size: 18px;&quot;&gt;Guest&lt;/font&gt;&lt;/b&gt;&lt;/p&gt;&lt;hr size=&quot;1&quot;&gt;&lt;p style=&quot;margin:0px;margin-left:4px;&quot;&gt;&lt;span style=&quot;font-size: medium; background-color: initial;&quot;&gt;&amp;nbsp;Register()&lt;/span&gt;&lt;br&gt;&lt;/p&gt;&lt;p style=&quot;margin:0px;margin-left:4px;&quot;&gt;&lt;span style=&quot;font-size: medium; background-color: initial;&quot;&gt;&amp;nbsp;Show_product()&lt;/span&gt;&lt;/p&gt;&lt;p style=&quot;margin:0px;margin-left:4px;&quot;&gt;&lt;span style=&quot;font-size: medium; background-color: initial;&quot;&gt;&amp;nbsp;Show_cate()&lt;/span&gt;&lt;/p&gt;&lt;p style=&quot;margin:0px;margin-left:4px;&quot;&gt;&lt;span style=&quot;font-size: medium; background-color: initial;&quot;&gt;&amp;nbsp;Search_cate()&lt;/span&gt;&lt;/p&gt;&lt;p style=&quot;margin:0px;margin-left:4px;&quot;&gt;&lt;span style=&quot;font-size: medium; background-color: initial;&quot;&gt;&amp;nbsp;Searc_product()&lt;/span&gt;&lt;/p&gt;&lt;p style=&quot;margin:0px;margin-left:4px;&quot;&gt;&lt;span style=&quot;font-size: medium; background-color: initial;&quot;&gt;&lt;br&gt;&lt;/span&gt;&lt;/p&gt;" style="verticalAlign=top;align=left;overflow=fill;fontSize=12;fontFamily=Helvetica;html=1;whiteSpace=wrap;" vertex="1" parent="1">
          <mxGeometry x="620" y="-530" width="210" height="170" as="geometry" />
        </mxCell>
        <mxCell id="T_Qcv4OTEnrP9w2gQTgH-11" value="&lt;p style=&quot;margin:0px;margin-top:4px;text-align:center;&quot;&gt;&lt;b style=&quot;&quot;&gt;&lt;font style=&quot;font-size: 18px;&quot;&gt;Comments&lt;/font&gt;&lt;/b&gt;&lt;/p&gt;&lt;hr size=&quot;1&quot;&gt;&lt;p style=&quot;margin:0px;margin-left:4px;&quot;&gt;&lt;font size=&quot;3&quot;&gt;&amp;nbsp;&lt;b&gt;&lt;u&gt;Cmt_ID: int&lt;/u&gt;&lt;/b&gt;&lt;/font&gt;&lt;/p&gt;&lt;p style=&quot;margin:0px;margin-left:4px;&quot;&gt;&lt;font size=&quot;3&quot;&gt;&amp;nbsp;Cmt_Content: String&lt;/font&gt;&lt;/p&gt;&lt;hr size=&quot;1&quot;&gt;&lt;p style=&quot;border-color: var(--border-color); margin: 0px 0px 0px 4px;&quot;&gt;&lt;font size=&quot;3&quot;&gt;&amp;nbsp;Getdata()&lt;/font&gt;&lt;/p&gt;" style="verticalAlign=top;align=left;overflow=fill;fontSize=12;fontFamily=Helvetica;html=1;whiteSpace=wrap;" vertex="1" parent="1">
          <mxGeometry x="590" y="710" width="210" height="110" as="geometry" />
        </mxCell>
        <mxCell id="T_Qcv4OTEnrP9w2gQTgH-16" value="" style="endArrow=none;html=1;rounded=0;" edge="1" parent="1" source="T_Qcv4OTEnrP9w2gQTgH-2" target="T_Qcv4OTEnrP9w2gQTgH-6">
          <mxGeometry width="50" height="50" relative="1" as="geometry">
            <mxPoint x="450" y="700" as="sourcePoint" />
            <mxPoint x="500" y="650" as="targetPoint" />
          </mxGeometry>
        </mxCell>
        <mxCell id="T_Qcv4OTEnrP9w2gQTgH-19" value="&lt;font style=&quot;font-size: 14px;&quot;&gt;Manage&lt;/font&gt;" style="text;html=1;align=center;verticalAlign=middle;resizable=0;points=[];autosize=1;strokeColor=none;fillColor=none;" vertex="1" parent="1">
          <mxGeometry x="830" y="340" width="70" height="30" as="geometry" />
        </mxCell>
        <mxCell id="T_Qcv4OTEnrP9w2gQTgH-20" value="&lt;font style=&quot;font-size: 14px;&quot;&gt;1&lt;/font&gt;" style="text;html=1;align=center;verticalAlign=middle;resizable=0;points=[];autosize=1;strokeColor=none;fillColor=none;" vertex="1" parent="1">
          <mxGeometry x="735" y="340" width="30" height="30" as="geometry" />
        </mxCell>
        <mxCell id="T_Qcv4OTEnrP9w2gQTgH-21" value="&lt;font style=&quot;font-size: 14px;&quot;&gt;1..*&lt;/font&gt;" style="text;html=1;align=center;verticalAlign=middle;resizable=0;points=[];autosize=1;strokeColor=none;fillColor=none;" vertex="1" parent="1">
          <mxGeometry x="960" y="340" width="40" height="30" as="geometry" />
        </mxCell>
        <mxCell id="T_Qcv4OTEnrP9w2gQTgH-22" value="" style="endArrow=none;html=1;rounded=0;entryX=0.561;entryY=1.016;entryDx=0;entryDy=0;entryPerimeter=0;" edge="1" parent="1" source="T_Qcv4OTEnrP9w2gQTgH-4" target="T_Qcv4OTEnrP9w2gQTgH-3">
          <mxGeometry width="50" height="50" relative="1" as="geometry">
            <mxPoint x="210" y="520" as="sourcePoint" />
            <mxPoint x="260" y="470" as="targetPoint" />
          </mxGeometry>
        </mxCell>
        <mxCell id="T_Qcv4OTEnrP9w2gQTgH-23" value="&lt;font style=&quot;font-size: 14px;&quot;&gt;1&lt;/font&gt;" style="text;html=1;align=center;verticalAlign=middle;resizable=0;points=[];autosize=1;strokeColor=none;fillColor=none;" vertex="1" parent="1">
          <mxGeometry x="215" y="510" width="30" height="30" as="geometry" />
        </mxCell>
        <mxCell id="T_Qcv4OTEnrP9w2gQTgH-24" value="&lt;font style=&quot;font-size: 14px;&quot;&gt;0..*&lt;/font&gt;" style="text;html=1;align=center;verticalAlign=middle;resizable=0;points=[];autosize=1;strokeColor=none;fillColor=none;" vertex="1" parent="1">
          <mxGeometry x="205" y="680" width="40" height="30" as="geometry" />
        </mxCell>
        <mxCell id="T_Qcv4OTEnrP9w2gQTgH-25" value="" style="endArrow=none;html=1;rounded=0;" edge="1" parent="1" source="T_Qcv4OTEnrP9w2gQTgH-5" target="T_Qcv4OTEnrP9w2gQTgH-3">
          <mxGeometry width="50" height="50" relative="1" as="geometry">
            <mxPoint x="-40" y="560" as="sourcePoint" />
            <mxPoint x="-40" y="404" as="targetPoint" />
          </mxGeometry>
        </mxCell>
        <mxCell id="T_Qcv4OTEnrP9w2gQTgH-26" value="&lt;font style=&quot;font-size: 14px;&quot;&gt;1&lt;/font&gt;" style="text;html=1;align=center;verticalAlign=middle;resizable=0;points=[];autosize=1;strokeColor=none;fillColor=none;" vertex="1" parent="1">
          <mxGeometry x="70" y="490" width="30" height="30" as="geometry" />
        </mxCell>
        <mxCell id="T_Qcv4OTEnrP9w2gQTgH-27" value="&lt;font style=&quot;font-size: 14px;&quot;&gt;0..*&lt;/font&gt;" style="text;html=1;align=center;verticalAlign=middle;resizable=0;points=[];autosize=1;strokeColor=none;fillColor=none;" vertex="1" parent="1">
          <mxGeometry x="-80" y="640" width="40" height="30" as="geometry" />
        </mxCell>
        <mxCell id="T_Qcv4OTEnrP9w2gQTgH-28" value="" style="endArrow=none;html=1;rounded=0;" edge="1" parent="1" source="T_Qcv4OTEnrP9w2gQTgH-5" target="T_Qcv4OTEnrP9w2gQTgH-4">
          <mxGeometry width="50" height="50" relative="1" as="geometry">
            <mxPoint x="60" y="710" as="sourcePoint" />
            <mxPoint x="110" y="660" as="targetPoint" />
          </mxGeometry>
        </mxCell>
        <mxCell id="T_Qcv4OTEnrP9w2gQTgH-29" value="&lt;font style=&quot;font-size: 14px;&quot;&gt;0..*&lt;/font&gt;" style="text;html=1;align=center;verticalAlign=middle;resizable=0;points=[];autosize=1;strokeColor=none;fillColor=none;" vertex="1" parent="1">
          <mxGeometry x="100" y="740" width="40" height="30" as="geometry" />
        </mxCell>
        <mxCell id="T_Qcv4OTEnrP9w2gQTgH-30" value="&lt;span style=&quot;font-size: 14px;&quot;&gt;0..1&lt;/span&gt;" style="text;html=1;align=center;verticalAlign=middle;resizable=0;points=[];autosize=1;strokeColor=none;fillColor=none;" vertex="1" parent="1">
          <mxGeometry x="-40" y="740" width="50" height="30" as="geometry" />
        </mxCell>
        <mxCell id="T_Qcv4OTEnrP9w2gQTgH-32" value="&lt;font style=&quot;font-size: 14px;&quot;&gt;Tạo ra&lt;/font&gt;" style="text;html=1;align=center;verticalAlign=middle;resizable=0;points=[];autosize=1;strokeColor=none;fillColor=none;" vertex="1" parent="1">
          <mxGeometry x="20" y="740" width="60" height="30" as="geometry" />
        </mxCell>
        <mxCell id="T_Qcv4OTEnrP9w2gQTgH-33" value="Watch infomation" style="text;html=1;strokeColor=none;fillColor=none;align=center;verticalAlign=middle;whiteSpace=wrap;rounded=0;rotation=-45;" vertex="1" parent="1">
          <mxGeometry x="-24.39" y="559.39" width="120" height="30" as="geometry" />
        </mxCell>
        <mxCell id="T_Qcv4OTEnrP9w2gQTgH-34" value="" style="endArrow=none;html=1;rounded=0;" edge="1" parent="1" source="T_Qcv4OTEnrP9w2gQTgH-11" target="T_Qcv4OTEnrP9w2gQTgH-3">
          <mxGeometry width="50" height="50" relative="1" as="geometry">
            <mxPoint x="510" y="710" as="sourcePoint" />
            <mxPoint x="560" y="660" as="targetPoint" />
          </mxGeometry>
        </mxCell>
        <mxCell id="T_Qcv4OTEnrP9w2gQTgH-35" value="&lt;font style=&quot;font-size: 14px;&quot;&gt;1&lt;/font&gt;" style="text;html=1;strokeColor=none;fillColor=none;align=center;verticalAlign=middle;whiteSpace=wrap;rounded=0;" vertex="1" parent="1">
          <mxGeometry x="330" y="480" width="60" height="30" as="geometry" />
        </mxCell>
        <mxCell id="T_Qcv4OTEnrP9w2gQTgH-36" value="&lt;font style=&quot;font-size: 14px;&quot;&gt;0..*&lt;/font&gt;" style="text;html=1;align=center;verticalAlign=middle;resizable=0;points=[];autosize=1;strokeColor=none;fillColor=none;" vertex="1" parent="1">
          <mxGeometry x="570" y="680" width="40" height="30" as="geometry" />
        </mxCell>
        <mxCell id="T_Qcv4OTEnrP9w2gQTgH-40" value="&lt;span style=&quot;font-size: 14px;&quot;&gt;Write&lt;/span&gt;" style="text;html=1;align=center;verticalAlign=middle;resizable=0;points=[];autosize=1;strokeColor=none;fillColor=none;rotation=35;" vertex="1" parent="1">
          <mxGeometry x="445" y="550" width="60" height="30" as="geometry" />
        </mxCell>
        <mxCell id="T_Qcv4OTEnrP9w2gQTgH-41" value="" style="endArrow=none;html=1;rounded=0;" edge="1" parent="1" source="T_Qcv4OTEnrP9w2gQTgH-7" target="T_Qcv4OTEnrP9w2gQTgH-2">
          <mxGeometry width="50" height="50" relative="1" as="geometry">
            <mxPoint x="420" y="700" as="sourcePoint" />
            <mxPoint x="470" y="650" as="targetPoint" />
          </mxGeometry>
        </mxCell>
        <mxCell id="T_Qcv4OTEnrP9w2gQTgH-43" value="&lt;font style=&quot;font-size: 14px;&quot;&gt;1..*&lt;/font&gt;" style="text;html=1;align=center;verticalAlign=middle;resizable=0;points=[];autosize=1;strokeColor=none;fillColor=none;" vertex="1" parent="1">
          <mxGeometry x="490" y="290" width="40" height="30" as="geometry" />
        </mxCell>
        <mxCell id="T_Qcv4OTEnrP9w2gQTgH-44" value="&lt;font style=&quot;font-size: 14px;&quot;&gt;0..*&lt;/font&gt;" style="text;html=1;align=center;verticalAlign=middle;resizable=0;points=[];autosize=1;strokeColor=none;fillColor=none;" vertex="1" parent="1">
          <mxGeometry x="200" y="40.5" width="40" height="30" as="geometry" />
        </mxCell>
        <mxCell id="T_Qcv4OTEnrP9w2gQTgH-45" value="&lt;font style=&quot;font-size: 14px;&quot;&gt;Manage&lt;/font&gt;" style="text;html=1;align=center;verticalAlign=middle;resizable=0;points=[];autosize=1;strokeColor=none;fillColor=none;rotation=30;" vertex="1" parent="1">
          <mxGeometry x="350" y="165" width="70" height="30" as="geometry" />
        </mxCell>
        <mxCell id="T_Qcv4OTEnrP9w2gQTgH-46" value="&lt;span style=&quot;font-size: 14px;&quot;&gt;Create&lt;/span&gt;" style="text;html=1;align=center;verticalAlign=middle;resizable=0;points=[];autosize=1;strokeColor=none;fillColor=none;rotation=0;" vertex="1" parent="1">
          <mxGeometry x="239.99820787393543" y="620.0045737548662" width="70" height="30" as="geometry" />
        </mxCell>
        <mxCell id="T_Qcv4OTEnrP9w2gQTgH-47" value="" style="endArrow=none;html=1;rounded=0;exitX=0.995;exitY=0.191;exitDx=0;exitDy=0;exitPerimeter=0;" edge="1" parent="1" source="T_Qcv4OTEnrP9w2gQTgH-2" target="T_Qcv4OTEnrP9w2gQTgH-9">
          <mxGeometry width="50" height="50" relative="1" as="geometry">
            <mxPoint x="650" y="210" as="sourcePoint" />
            <mxPoint x="700" y="160" as="targetPoint" />
          </mxGeometry>
        </mxCell>
        <mxCell id="T_Qcv4OTEnrP9w2gQTgH-48" value="&lt;font style=&quot;font-size: 14px;&quot;&gt;Manage&lt;/font&gt;" style="text;html=1;align=center;verticalAlign=middle;resizable=0;points=[];autosize=1;strokeColor=none;fillColor=none;rotation=-30;" vertex="1" parent="1">
          <mxGeometry x="870" y="180" width="70" height="30" as="geometry" />
        </mxCell>
        <mxCell id="T_Qcv4OTEnrP9w2gQTgH-49" value="&lt;font style=&quot;font-size: 14px;&quot;&gt;1..*&lt;/font&gt;" style="text;html=1;align=center;verticalAlign=middle;resizable=0;points=[];autosize=1;strokeColor=none;fillColor=none;" vertex="1" parent="1">
          <mxGeometry x="740" y="250" width="40" height="30" as="geometry" />
        </mxCell>
        <mxCell id="T_Qcv4OTEnrP9w2gQTgH-50" value="&lt;font style=&quot;font-size: 14px;&quot;&gt;0..*&lt;/font&gt;" style="text;html=1;align=center;verticalAlign=middle;resizable=0;points=[];autosize=1;strokeColor=none;fillColor=none;" vertex="1" parent="1">
          <mxGeometry x="1070" y="55.5" width="40" height="30" as="geometry" />
        </mxCell>
        <mxCell id="T_Qcv4OTEnrP9w2gQTgH-51" value="" style="endArrow=none;html=1;rounded=0;" edge="1" parent="1" source="T_Qcv4OTEnrP9w2gQTgH-7" target="T_Qcv4OTEnrP9w2gQTgH-1">
          <mxGeometry width="50" height="50" relative="1" as="geometry">
            <mxPoint x="330" y="210" as="sourcePoint" />
            <mxPoint x="380" y="160" as="targetPoint" />
          </mxGeometry>
        </mxCell>
        <mxCell id="T_Qcv4OTEnrP9w2gQTgH-53" value="&lt;font style=&quot;font-size: 14px;&quot;&gt;0..*&lt;/font&gt;" style="text;html=1;align=center;verticalAlign=middle;resizable=0;points=[];autosize=1;strokeColor=none;fillColor=none;" vertex="1" parent="1">
          <mxGeometry x="200" y="-40" width="40" height="30" as="geometry" />
        </mxCell>
        <mxCell id="T_Qcv4OTEnrP9w2gQTgH-54" value="&lt;font style=&quot;font-size: 14px;&quot;&gt;1..*&lt;/font&gt;" style="text;html=1;align=center;verticalAlign=middle;resizable=0;points=[];autosize=1;strokeColor=none;fillColor=none;" vertex="1" parent="1">
          <mxGeometry x="477.5" y="-90" width="40" height="30" as="geometry" />
        </mxCell>
        <mxCell id="T_Qcv4OTEnrP9w2gQTgH-55" value="&lt;font style=&quot;font-size: 14px;&quot;&gt;Watch infomation&lt;/font&gt;" style="text;html=1;strokeColor=none;fillColor=none;align=center;verticalAlign=middle;whiteSpace=wrap;rounded=0;rotation=-10;" vertex="1" parent="1">
          <mxGeometry x="280.00300858899107" y="-59.99699141100896" width="120" height="30" as="geometry" />
        </mxCell>
        <mxCell id="T_Qcv4OTEnrP9w2gQTgH-56" value="&lt;font style=&quot;font-size: 14px;&quot;&gt;Watch infomation&lt;/font&gt;" style="text;html=1;strokeColor=none;fillColor=none;align=center;verticalAlign=middle;whiteSpace=wrap;rounded=0;rotation=10;" vertex="1" parent="1">
          <mxGeometry x="865" y="-50" width="120" height="30" as="geometry" />
        </mxCell>
        <mxCell id="T_Qcv4OTEnrP9w2gQTgH-57" value="" style="endArrow=none;html=1;rounded=0;" edge="1" parent="1" source="T_Qcv4OTEnrP9w2gQTgH-1" target="T_Qcv4OTEnrP9w2gQTgH-9">
          <mxGeometry width="50" height="50" relative="1" as="geometry">
            <mxPoint x="830" y="40" as="sourcePoint" />
            <mxPoint x="1160" y="272" as="targetPoint" />
          </mxGeometry>
        </mxCell>
        <mxCell id="T_Qcv4OTEnrP9w2gQTgH-58" value="&lt;font style=&quot;font-size: 14px;&quot;&gt;0..*&lt;/font&gt;" style="text;html=1;align=center;verticalAlign=middle;resizable=0;points=[];autosize=1;strokeColor=none;fillColor=none;" vertex="1" parent="1">
          <mxGeometry x="1075" y="-30" width="40" height="30" as="geometry" />
        </mxCell>
        <mxCell id="T_Qcv4OTEnrP9w2gQTgH-59" value="&lt;font style=&quot;font-size: 14px;&quot;&gt;1..*&lt;/font&gt;" style="text;html=1;align=center;verticalAlign=middle;resizable=0;points=[];autosize=1;strokeColor=none;fillColor=none;" vertex="1" parent="1">
          <mxGeometry x="752.5" y="-80" width="40" height="30" as="geometry" />
        </mxCell>
        <mxCell id="T_Qcv4OTEnrP9w2gQTgH-60" value="" style="endArrow=none;html=1;rounded=0;" edge="1" parent="1" source="T_Qcv4OTEnrP9w2gQTgH-10" target="T_Qcv4OTEnrP9w2gQTgH-9">
          <mxGeometry width="50" height="50" relative="1" as="geometry">
            <mxPoint x="990" y="-230" as="sourcePoint" />
            <mxPoint x="1405" y="-178" as="targetPoint" />
          </mxGeometry>
        </mxCell>
        <mxCell id="T_Qcv4OTEnrP9w2gQTgH-61" value="" style="endArrow=none;html=1;rounded=0;" edge="1" parent="1" source="T_Qcv4OTEnrP9w2gQTgH-7" target="T_Qcv4OTEnrP9w2gQTgH-10">
          <mxGeometry width="50" height="50" relative="1" as="geometry">
            <mxPoint x="490" y="-290" as="sourcePoint" />
            <mxPoint x="905" y="-238" as="targetPoint" />
          </mxGeometry>
        </mxCell>
        <mxCell id="T_Qcv4OTEnrP9w2gQTgH-62" value="&lt;font style=&quot;font-size: 14px;&quot;&gt;1..*&lt;/font&gt;" style="text;html=1;align=center;verticalAlign=middle;resizable=0;points=[];autosize=1;strokeColor=none;fillColor=none;" vertex="1" parent="1">
          <mxGeometry x="580" y="-390" width="40" height="30" as="geometry" />
        </mxCell>
        <mxCell id="T_Qcv4OTEnrP9w2gQTgH-63" value="&lt;font style=&quot;font-size: 14px;&quot;&gt;0..*&lt;/font&gt;" style="text;html=1;align=center;verticalAlign=middle;resizable=0;points=[];autosize=1;strokeColor=none;fillColor=none;" vertex="1" parent="1">
          <mxGeometry x="205" y="-90" width="40" height="30" as="geometry" />
        </mxCell>
        <mxCell id="T_Qcv4OTEnrP9w2gQTgH-64" value="&lt;font style=&quot;font-size: 14px;&quot;&gt;0..*&lt;/font&gt;" style="text;html=1;align=center;verticalAlign=middle;resizable=0;points=[];autosize=1;strokeColor=none;fillColor=none;" vertex="1" parent="1">
          <mxGeometry x="1130" y="-80" width="40" height="30" as="geometry" />
        </mxCell>
        <mxCell id="T_Qcv4OTEnrP9w2gQTgH-65" value="&lt;font style=&quot;font-size: 14px;&quot;&gt;1..*&lt;/font&gt;" style="text;html=1;align=center;verticalAlign=middle;resizable=0;points=[];autosize=1;strokeColor=none;fillColor=none;" vertex="1" parent="1">
          <mxGeometry x="825" y="-370" width="40" height="30" as="geometry" />
        </mxCell>
        <mxCell id="T_Qcv4OTEnrP9w2gQTgH-66" value="&lt;font style=&quot;font-size: 14px;&quot;&gt;Watch infomation&lt;/font&gt;" style="text;html=1;strokeColor=none;fillColor=none;align=center;verticalAlign=middle;whiteSpace=wrap;rounded=0;rotation=45;" vertex="1" parent="1">
          <mxGeometry x="929.9990180267196" y="-229.99773496376432" width="120" height="30" as="geometry" />
        </mxCell>
        <mxCell id="T_Qcv4OTEnrP9w2gQTgH-67" value="&lt;font style=&quot;font-size: 14px;&quot;&gt;Watch infomation&lt;/font&gt;" style="text;html=1;strokeColor=none;fillColor=none;align=center;verticalAlign=middle;whiteSpace=wrap;rounded=0;rotation=-35;" vertex="1" parent="1">
          <mxGeometry x="379.9990180267196" y="-274.8277349637643" width="120" height="30" as="geometry" />
        </mxCell>
        <mxCell id="T_Qcv4OTEnrP9w2gQTgH-71" value="" style="endArrow=block;endSize=16;endFill=0;html=1;rounded=0;edgeStyle=elbowEdgeStyle;elbow=vertical;" edge="1" parent="1" source="T_Qcv4OTEnrP9w2gQTgH-3" target="T_Qcv4OTEnrP9w2gQTgH-1">
          <mxGeometry width="160" relative="1" as="geometry">
            <mxPoint x="880" y="90" as="sourcePoint" />
            <mxPoint x="1040" y="90" as="targetPoint" />
          </mxGeometry>
        </mxCell>
        <mxCell id="T_Qcv4OTEnrP9w2gQTgH-72" value="" style="endArrow=block;endSize=16;endFill=0;html=1;rounded=0;entryX=0.5;entryY=1;entryDx=0;entryDy=0;" edge="1" parent="1" source="T_Qcv4OTEnrP9w2gQTgH-2" target="T_Qcv4OTEnrP9w2gQTgH-1">
          <mxGeometry width="160" relative="1" as="geometry">
            <mxPoint x="880" y="300" as="sourcePoint" />
            <mxPoint x="1040" y="300" as="targetPoint" />
          </mxGeometry>
        </mxCell>
        <mxCell id="T_Qcv4OTEnrP9w2gQTgH-73" value="" style="endArrow=block;endSize=16;endFill=0;html=1;rounded=0;entryX=0.5;entryY=1;entryDx=0;entryDy=0;edgeStyle=elbowEdgeStyle;elbow=vertical;" edge="1" parent="1" source="T_Qcv4OTEnrP9w2gQTgH-6" target="T_Qcv4OTEnrP9w2gQTgH-1">
          <mxGeometry width="160" relative="1" as="geometry">
            <mxPoint x="1220" y="170" as="sourcePoint" />
            <mxPoint x="1220" y="31" as="targetPoint" />
            <Array as="points">
              <mxPoint x="890" y="140" />
            </Array>
          </mxGeometry>
        </mxCell>
        <mxCell id="T_Qcv4OTEnrP9w2gQTgH-74" value="" style="endArrow=none;html=1;rounded=0;" edge="1" parent="1" source="T_Qcv4OTEnrP9w2gQTgH-2" target="T_Qcv4OTEnrP9w2gQTgH-11">
          <mxGeometry width="50" height="50" relative="1" as="geometry">
            <mxPoint x="780" y="560" as="sourcePoint" />
            <mxPoint x="1030" y="560" as="targetPoint" />
          </mxGeometry>
        </mxCell>
        <mxCell id="T_Qcv4OTEnrP9w2gQTgH-75" value="" style="endArrow=none;html=1;rounded=0;" edge="1" parent="1" source="T_Qcv4OTEnrP9w2gQTgH-6" target="T_Qcv4OTEnrP9w2gQTgH-11">
          <mxGeometry width="50" height="50" relative="1" as="geometry">
            <mxPoint x="965.5238095238101" y="520" as="sourcePoint" />
            <mxPoint x="870" y="860" as="targetPoint" />
          </mxGeometry>
        </mxCell>
        <mxCell id="T_Qcv4OTEnrP9w2gQTgH-76" value="&lt;font style=&quot;font-size: 14px;&quot;&gt;Manage&lt;/font&gt;" style="text;html=1;align=center;verticalAlign=middle;resizable=0;points=[];autosize=1;strokeColor=none;fillColor=none;" vertex="1" parent="1">
          <mxGeometry x="670" y="600" width="70" height="30" as="geometry" />
        </mxCell>
        <mxCell id="T_Qcv4OTEnrP9w2gQTgH-77" value="&lt;font style=&quot;font-size: 14px;&quot;&gt;Manage&lt;/font&gt;" style="text;html=1;align=center;verticalAlign=middle;resizable=0;points=[];autosize=1;strokeColor=none;fillColor=none;rotation=-45;" vertex="1" parent="1">
          <mxGeometry x="875" y="559.39" width="70" height="30" as="geometry" />
        </mxCell>
        <mxCell id="T_Qcv4OTEnrP9w2gQTgH-78" value="&lt;font style=&quot;font-size: 14px;&quot;&gt;1..*&lt;/font&gt;" style="text;html=1;align=center;verticalAlign=middle;resizable=0;points=[];autosize=1;strokeColor=none;fillColor=none;" vertex="1" parent="1">
          <mxGeometry x="1010" y="445" width="40" height="30" as="geometry" />
        </mxCell>
        <mxCell id="T_Qcv4OTEnrP9w2gQTgH-79" value="&lt;font style=&quot;font-size: 14px;&quot;&gt;1..*&lt;/font&gt;" style="text;html=1;align=center;verticalAlign=middle;resizable=0;points=[];autosize=1;strokeColor=none;fillColor=none;" vertex="1" parent="1">
          <mxGeometry x="655" y="535" width="40" height="30" as="geometry" />
        </mxCell>
        <mxCell id="T_Qcv4OTEnrP9w2gQTgH-80" value="&lt;font style=&quot;font-size: 14px;&quot;&gt;0..*&lt;/font&gt;" style="text;html=1;align=center;verticalAlign=middle;resizable=0;points=[];autosize=1;strokeColor=none;fillColor=none;" vertex="1" parent="1">
          <mxGeometry x="685" y="680" width="40" height="30" as="geometry" />
        </mxCell>
        <mxCell id="T_Qcv4OTEnrP9w2gQTgH-81" value="&lt;font style=&quot;font-size: 14px;&quot;&gt;0..*&lt;/font&gt;" style="text;html=1;align=center;verticalAlign=middle;resizable=0;points=[];autosize=1;strokeColor=none;fillColor=none;" vertex="1" parent="1">
          <mxGeometry x="765" y="680" width="40" height="30" as="geometry" />
        </mxCell>
        <mxCell id="T_Qcv4OTEnrP9w2gQTgH-82" value="" style="endArrow=none;html=1;rounded=0;" edge="1" parent="1" source="T_Qcv4OTEnrP9w2gQTgH-5" target="T_Qcv4OTEnrP9w2gQTgH-6">
          <mxGeometry width="50" height="50" relative="1" as="geometry">
            <mxPoint x="760" y="960" as="sourcePoint" />
            <mxPoint x="1140" y="700" as="targetPoint" />
            <Array as="points">
              <mxPoint x="-135" y="960" />
              <mxPoint x="1100" y="960" />
            </Array>
          </mxGeometry>
        </mxCell>
        <mxCell id="T_Qcv4OTEnrP9w2gQTgH-83" value="&lt;font style=&quot;font-size: 14px;&quot;&gt;1..*&lt;/font&gt;" style="text;html=1;align=center;verticalAlign=middle;resizable=0;points=[];autosize=1;strokeColor=none;fillColor=none;" vertex="1" parent="1">
          <mxGeometry x="1100" y="445" width="40" height="30" as="geometry" />
        </mxCell>
        <mxCell id="T_Qcv4OTEnrP9w2gQTgH-84" value="&lt;font style=&quot;font-size: 14px;&quot;&gt;0..*&lt;/font&gt;" style="text;html=1;align=center;verticalAlign=middle;resizable=0;points=[];autosize=1;strokeColor=none;fillColor=none;" vertex="1" parent="1">
          <mxGeometry x="-140" y="860" width="40" height="30" as="geometry" />
        </mxCell>
        <mxCell id="T_Qcv4OTEnrP9w2gQTgH-85" value="&lt;font style=&quot;font-size: 14px;&quot;&gt;Manage&lt;/font&gt;" style="text;html=1;align=center;verticalAlign=middle;resizable=0;points=[];autosize=1;strokeColor=none;fillColor=none;rotation=-1;" vertex="1" parent="1">
          <mxGeometry x="474.9953390593274" y="929.9953390593273" width="70" height="30" as="geometry" />
        </mxCell>
        <mxCell id="T_Qcv4OTEnrP9w2gQTgH-87" value="" style="endArrow=none;html=1;rounded=0;entryX=0.004;entryY=0.857;entryDx=0;entryDy=0;entryPerimeter=0;" edge="1" parent="1" source="T_Qcv4OTEnrP9w2gQTgH-5" target="T_Qcv4OTEnrP9w2gQTgH-2">
          <mxGeometry width="50" height="50" relative="1" as="geometry">
            <mxPoint y="747.8153591160218" as="sourcePoint" />
            <mxPoint x="800" y="562.18" as="targetPoint" />
          </mxGeometry>
        </mxCell>
        <mxCell id="T_Qcv4OTEnrP9w2gQTgH-88" value="&lt;font style=&quot;font-size: 14px;&quot;&gt;0..*&lt;/font&gt;" style="text;html=1;align=center;verticalAlign=middle;resizable=0;points=[];autosize=1;strokeColor=none;fillColor=none;" vertex="1" parent="1">
          <mxGeometry x="-35" y="690" width="40" height="30" as="geometry" />
        </mxCell>
        <mxCell id="T_Qcv4OTEnrP9w2gQTgH-89" value="&lt;font style=&quot;font-size: 14px;&quot;&gt;1..*&lt;/font&gt;" style="text;html=1;align=center;verticalAlign=middle;resizable=0;points=[];autosize=1;strokeColor=none;fillColor=none;" vertex="1" parent="1">
          <mxGeometry x="490" y="470" width="40" height="30" as="geometry" />
        </mxCell>
        <mxCell id="T_Qcv4OTEnrP9w2gQTgH-90" value="&lt;font style=&quot;font-size: 14px;&quot;&gt;Manage&lt;/font&gt;" style="text;html=1;align=center;verticalAlign=middle;resizable=0;points=[];autosize=1;strokeColor=none;fillColor=none;rotation=-25;" vertex="1" parent="1">
          <mxGeometry x="260" y="559.39" width="70" height="30" as="geometry" />
        </mxCell>
      </root>
    </mxGraphModel>
  </diagram>
</mxfile>
